<svg id="emEv4f6nraq1" xmlns="http://www.w3.org/2000/svg" xmlns:xlink="http://www.w3.org/1999/xlink" viewBox="0 0 100 50" shape-rendering="geometricPrecision" text-rendering="geometricPrecision" project-id="77dae89390684f399deb4a0deec1cc37" export-id="546037041151405e9b207598c381c348" cached="false"><circle r="12" transform="translate(15 25)" fill="#f00"/><path d="M16.129239,9.839546q0-5,9.828823-5.477691" transform="translate(0 3)" fill="none" stroke="#000" stroke-width="2"/><line x1="25" y1="5" x2="28" y2="2" transform="translate(1.097368 2.43812)" fill="none" stroke="#ffa500" stroke-width="2"/><line x1="25" y1="5" x2="28" y2="8" transform="translate(.958062 2.267444)" fill="none" stroke="#ffa500" stroke-width="2"/><text dx="0" dy="0" font-family="&quot;Arial&quot;" font-size="18" font-weight="700" transform="translate(7.520324 31.250361)" fill="#fff"><tspan font-family="&quot;Arial&quot;" font-size="18" font-weight="700" font-style="normal" transform="translate(7 30)" fill="#fff"><![CDATA[
mi-
]]></tspan></text><g transform="translate(30 0)"><g transform="translate(.000001 7.500006)"><path d="M4.42361,10.2724c0-4.54863,2.88763-7.06999,8.22849-7.08702c3.8417,0,4.5316,2.50432,4.5316,3.40724c0,1.75473-2.4787,3.61168-2.4787,3.61168s.1448,1.0818,2.2658,1.0733s4.1994-1.40551,4.1824-4.91497c0-4.02906-4.2591-5.87749-8.4159-5.860453-3.49245,0-12.726069.502563-12.726069,9.702123c0,8.1859,15.443269,8.9014,15.460369,14.1486c0,5.6815-6.35452,7.2148-8.51812,7.2233s-3.04096-1.5333-3.04096-2.3851c0-4.5997,4.5657-5.886,4.5657-5.886-.0098-.2573-.07069-.5102-.17912-.7438s-.26226-.4433-.45251-.6169-.41312-.3076-.65565-.3943-.49988-.1242-.75706-.1104c-4.54867,0-6.371541,3.9353-6.354505,7.7685c0,3.2624,2.316925,5.2982,5.800825,5.2897c6.6526,0,14.1571-3.2795,14.1315-10.4943-.0255-6.7463-15.57106-8.5096-15.58809-13.7312Z" fill="#fff"/><path d="M67.8834,28.3564c-.0511-.1278-.1959-.0937-.4003.0681-.8713.8169-1.8979,1.4505-3.0187,1.8631s-2.3131.596-3.5062.539c-7.3681,0-8.6458-12.1212-8.6458-12.1212s5.6219-4.1994,6.4737-5.886-1.891-2.0955-1.891-2.0955-3.9268,4.7872-6.7123,6.1927c.2982-2.0784,2.351-6.8145,2.4788-9.54881s-3.2454-2.03583-3.8246-1.75473c0,1.19253-2.9984,11.99344-4.0972,17.93064-.6389,1.0306-1.5588,2.2147-2.3851,2.2147-.477,0-.6559-.8518-.6559-2.1551c0-1.7547.9626-4.5742.9626-6.2864c0-1.184-.5452-1.2607-1.0137-1.2521h-.7496c-1.201,0-.8092-1.0222-1.891-1.0137-3.305,0-7.5215,3.6202-7.6663,9.0803-1.1159.7411-2.6747,1.7036-3.4754,1.7036s-1.1073-.8092-1.1073-1.4821c0-1.1755,1.8995-8.1604,1.8995-8.1604s2.4191-.6218,3.4839-.8518c.8007-.1618,1.0222-.2214,1.3373-.6048s.92-1.184,1.4055-1.8995s0-1.2777-.8518-1.2692c-1.4753.1463-2.9384.3968-4.3783.7496c0,0,1.4907-6.57597,1.4822-6.70374s-.1789-.20443-.4259-.20443c-.7825.08067-1.5504.26692-2.2829.55367-.4645.21623-.8814.52261-1.2265.90134s-.6115.82228-.7838,1.30485c-.1703.57923-1.3118,5.11081-1.3118,5.11081s-6.1415,2.1211-6.9848,2.4447c-.0247.0088-.0461.0249-.0614.0462s-.0235.0469-.0238.0731c0,.0511.707,2.7428,2.1381,2.7343c1.0392,0,4.0631-1.2351,4.0631-1.2351s-1.5503,6.1586-1.5418,8.2114c0,1.3203.6218,2.8706,3.2113,2.8621c2.0644-.1041,4.0473-.8384,5.6816-2.104.2577.6315.7031,1.1686,1.2759,1.5387.5727.3702,1.2454.5556,1.9269.5312c1.6641-.1281,3.2186-.8795,4.3528-2.1039.1728.5696.5146,1.0734.98,1.4445.4655.3712,1.0327.5922,1.6265.6339.92,0,1.874-1.0392,2.5554-2.0273-.0134.207-.0134.4147,0,.6218.2811,2.5554,4.0887,1.0562,4.2591.6985.1278-1.857,0-5.6475.7837-7.9815.9795,7.9815,4.7105,13.3479,11.4057,13.3223c3.7394,0,5.656-1.0903,6.4567-1.9762.3369-.344.5767-.7712.6949-1.238s.1106-.9567-.022-1.4196v0ZM35.7872,25.7243c-3.2113,0,.9881-8.3222,3.731-8.3307-.0341,1.0733-.0937,8.3222-3.731,8.3307Z" fill="#fff"/><path d="M61.8611,28.2797c1.053-.021,2.0903-.2588,3.0473-.6984s1.8132-1.0718,2.5151-1.857c.5281-.8092-.6219-2.0358-.9881-2.0103-.4845.6013-1.0965,1.0875-1.7919,1.4233s-1.4565.5131-2.2287.5188c-2.5554,0-1.9591-2.7769-1.9591-2.7769s4.8723.6304,6.8144-2.8706c.536-1.0205.6843-2.2006.4174-3.322-.264-.6729-1.7036-1.8995-3.9268-1.7036-2.7684.2385-6.2608,3.1261-7.0275,6.593-.6218,2.7769.5452,6.7208,5.1279,6.7037Zm3.0921-11.6953c.46,0,.4174.741.2981,1.5247-.1703,1.0648-1.6439,3.7735-4.4379,3.6713.1959-1.5758,2.2743-5.0938,4.1398-5.196Z" fill="#fff"/></g></g></svg>
